name Walk_125 04
datacolumns 19
datarows 27
range 0.008333 0.035417
endheader
time	ground_force_vx	ground_force_vy	ground_force_vz	ground_force_px	ground_force_py	ground_force_pz	ground_force_vx	ground_force_vy	ground_force_vz	ground_force_px	ground_force_py	ground_force_pz	ground_torque_x	ground_torque_y	ground_torque_z	ground_torque_x	ground_torque_y	ground_torque_z
0.008333	5.758182	622.005096	20.793024	0.792871	0.000000	-0.409116	-0.000000	0.000000	0.000000	0.000000	0.000000	-0.000000	0.000000	-17.643131	-0.000000	0.000000	0.000000	0.000000	
0.009375	6.128610	624.513897	16.384573	0.792200	0.000000	-0.409281	-0.000000	0.000000	-0.000000	0.000000	0.000000	-0.000000	0.000000	-16.163836	-0.000000	0.000000	0.000000	0.000000	
0.010417	6.495424	626.990342	12.039667	0.791537	0.000000	-0.409443	-0.000000	0.000000	-0.000000	0.000000	0.000000	-0.000000	0.000000	-14.681936	-0.000000	0.000000	0.000000	0.000000	
0.011458	6.861922	629.432001	7.801378	0.790876	0.000000	-0.409600	0.000000	0.000000	-0.000000	0.000000	0.000000	-0.000000	0.000000	-13.205731	-0.000000	0.000000	0.000000	0.000000	
0.012500	7.231608	631.839063	3.707237	0.790210	0.000000	-0.409750	0.000000	0.000000	-0.000000	0.000000	0.000000	-0.000000	0.000000	-11.743467	-0.000000	0.000000	0.000000	0.000000	
0.013542	7.607809	634.213277	-0.211097	0.789533	0.000000	-0.409891	0.000000	0.000000	-0.000000	0.000000	0.000000	-0.000000	0.000000	-10.303245	-0.000000	0.000000	0.000000	0.000000	
0.014583	7.993366	636.557001	-3.927893	0.788839	0.000000	-0.410022	0.000000	0.000000	-0.000000	0.000000	0.000000	-0.000000	0.000000	-8.892924	-0.000000	0.000000	0.000000	0.000000	
0.015625	8.390409	638.872431	-7.423159	0.788124	0.000000	-0.410143	0.000000	0.000000	-0.000000	-0.000000	-0.000000	0.000000	0.000000	-7.520027	-0.000000	0.000000	0.000000	0.000000	
0.016667	8.800230	641.161050	-10.682284	0.787384	0.000000	-0.410252	0.000000	-0.000000	-0.000000	-0.000000	-0.000000	0.000000	0.000000	-6.191660	-0.000000	0.000000	0.000000	0.000000	
0.017708	9.223255	643.423309	-13.695546	0.786617	0.000000	-0.410350	0.000000	-0.000000	-0.000000	-0.000000	-0.000000	0.000000	0.000000	-4.914433	-0.000000	0.000000	0.000000	0.000000	
0.018750	9.659087	645.658528	-16.457551	0.785822	0.000000	-0.410436	0.000000	-0.000000	-0.000000	-0.000000	-0.000000	0.000000	0.000000	-3.694389	-0.000000	0.000000	0.000000	0.000000	
0.019792	10.106624	647.864970	-18.966644	0.784999	0.000000	-0.410511	0.000000	-0.000000	0.000000	-0.000000	-0.000000	0.000000	0.000000	-2.536942	-0.000000	0.000000	0.000000	0.000000	
0.020833	10.564206	650.040053	-21.224347	0.784150	0.000000	-0.410576	0.000000	-0.000001	0.000000	-0.000000	-0.000000	0.000000	0.000000	-1.446830	-0.000000	0.000000	0.000000	0.000000	
0.021875	11.029798	652.180654	-23.234821	0.783276	0.000000	-0.410631	0.000000	-0.000001	0.000000	-0.000000	-0.000000	0.000000	0.000000	-0.428070	-0.000000	0.000000	0.000000	0.000000	
0.022917	11.501166	654.283446	-25.004412	0.782382	0.000000	-0.410677	-0.000000	-0.000001	0.000000	-0.000000	-0.000000	0.000000	0.000000	0.516069	0.000000	0.000000	0.000000	0.000000	
0.023958	11.976042	656.345230	-26.541244	0.781469	0.000000	-0.410715	-0.000000	-0.000001	0.000000	-0.000000	-0.000000	0.000000	0.000000	1.383088	0.000000	0.000000	0.000000	0.000000	
0.025000	12.452273	658.363228	-27.854894	0.780541	0.000000	-0.410746	-0.000000	-0.000001	0.000000	-0.000000	-0.000000	0.000000	0.000000	2.171265	0.000000	0.000000	0.000000	0.000000	
0.026042	12.927927	660.335326	-28.956121	0.779601	0.000000	-0.410771	-0.000000	-0.000000	0.000000	0.000000	0.000000	-0.000000	0.000000	2.879653	0.000000	0.000000	0.000000	0.000000	
0.027083	13.401376	662.260221	-29.856648	0.778650	0.000000	-0.410790	-0.000000	-0.000000	0.000000	0.000000	0.000000	-0.000000	0.000000	3.508070	0.000000	0.000000	0.000000	0.000000	
0.028125	13.871340	664.137509	-30.568982	0.777693	0.000000	-0.410805	-0.000000	0.000000	0.000000	0.000000	0.000000	-0.000000	0.000000	4.057072	0.000000	0.000000	0.000000	0.000000	
0.029167	14.336902	665.967691	-31.106255	0.776730	0.000000	-0.410816	-0.000000	0.000001	0.000000	0.000000	0.000000	-0.000000	0.000000	4.527927	0.000000	0.000000	0.000000	0.000000	
0.030208	14.797501	667.752107	-31.482088	0.775764	0.000000	-0.410824	-0.000000	0.000001	0.000000	0.000000	0.000000	-0.000000	0.000000	4.922573	0.000000	0.000000	0.000000	0.000000	
0.031250	15.252907	669.492835	-31.710454	0.774795	0.000000	-0.410829	-0.000000	0.000002	-0.000000	0.000000	0.000000	-0.000000	0.000000	5.243570	0.000000	0.000000	0.000000	0.000000	
0.032292	15.703176	671.192541	-31.805547	0.773825	0.000000	-0.410832	-0.000000	0.000002	-0.000000	0.000000	0.000000	-0.000000	0.000000	5.494051	0.000000	0.000000	0.000000	0.000000	
0.033333	16.148611	672.854321	-31.781646	0.772855	0.000000	-0.410834	0.000000	0.000003	-0.000000	0.000000	0.000000	-0.000000	0.000000	5.677657	0.000000	0.000000	0.000000	0.000000	
0.034375	16.589716	674.481532	-31.652981	0.771885	0.000000	-0.410834	0.000000	0.000003	-0.000000	0.000000	0.000000	-0.000000	0.000000	5.798481	0.000000	0.000000	0.000000	0.000000	
0.035417	17.027149	676.077629	-31.433597	0.770915	0.000000	-0.410834	0.000001	0.000002	-0.000000	0.000000	0.000000	-0.000000	0.000000	5.860994	0.000000	0.000000	0.000000	0.000000	
